<svg width="364" height="36" viewBox="0 0 364 36" fill="none" xmlns="http://www.w3.org/2000/svg">
<path d="M14.9534 25.3906H10.43L8.74249 35H4.45343L6.14093 25.3906H0.820618V21.3594H6.84406L8.01593 14.7031H2.57843V10.625H8.74249L10.4534 0.875H14.7191L13.0081 10.625H17.555L19.2659 0.875H23.555L21.8441 10.625H26.9769V14.7031H21.1175L19.9456 21.3594H25.1956V25.3906H19.2425L17.555 35H13.2659L14.9534 25.3906ZM11.1331 21.3594H15.6566L16.8284 14.7031H12.2816L11.1331 21.3594ZM50.2287 0.875L58.9944 25.625L67.7131 0.875H76.9475V35H69.8928V25.6719L70.5959 9.57031L61.385 35H56.5569L47.3694 9.59375L48.0725 25.6719V35H41.0412V0.875H50.2287ZM121.199 18.7109C121.199 22.0703 120.606 25.0156 119.418 27.5469C118.231 30.0781 116.527 32.0312 114.309 33.4062C112.106 34.7812 109.574 35.4688 106.715 35.4688C103.887 35.4688 101.363 34.7891 99.1447 33.4297C96.9259 32.0703 95.2072 30.1328 93.9884 27.6172C92.7697 25.0859 92.1525 22.1797 92.1369 18.8984V17.2109C92.1369 13.8516 92.7384 10.8984 93.9416 8.35156C95.1603 5.78906 96.8712 3.82812 99.0744 2.46875C101.293 1.09375 103.824 0.40625 106.668 0.40625C109.512 0.40625 112.035 1.09375 114.238 2.46875C116.457 3.82812 118.168 5.78906 119.371 8.35156C120.59 10.8984 121.199 13.8438 121.199 17.1875V18.7109ZM114.074 17.1641C114.074 13.5859 113.434 10.8672 112.152 9.00781C110.871 7.14844 109.043 6.21875 106.668 6.21875C104.309 6.21875 102.488 7.14062 101.207 8.98438C99.9259 10.8125 99.2775 13.5 99.2619 17.0469V18.7109C99.2619 22.1953 99.9025 24.8984 101.184 26.8203C102.465 28.7422 104.309 29.7031 106.715 29.7031C109.074 29.7031 110.887 28.7812 112.152 26.9375C113.418 25.0781 114.059 22.375 114.074 18.8281V17.1641ZM148.482 26.5391L156.217 0.875H164.045L152.162 35H144.826L132.99 0.875H140.795L148.482 26.5391ZM184.836 35H177.805V0.875H184.836V35ZM221.986 20.2109H208.486V29.3516H224.33V35H201.455V0.875H224.283V6.57031H208.486V14.7031H221.986V20.2109ZM266.285 35H259.254L245.566 12.5469V35H238.535V0.875H245.566L259.277 23.375V0.875H266.285V35ZM310.537 18.7109C310.537 22.0703 309.943 25.0156 308.756 27.5469C307.568 30.0781 305.865 32.0312 303.646 33.4062C301.443 34.7812 298.912 35.4688 296.052 35.4688C293.224 35.4688 290.701 34.7891 288.482 33.4297C286.263 32.0703 284.545 30.1328 283.326 27.6172C282.107 25.0859 281.49 22.1797 281.474 18.8984V17.2109C281.474 13.8516 282.076 10.8984 283.279 8.35156C284.498 5.78906 286.209 3.82812 288.412 2.46875C290.631 1.09375 293.162 0.40625 296.006 0.40625C298.849 0.40625 301.373 1.09375 303.576 2.46875C305.795 3.82812 307.506 5.78906 308.709 8.35156C309.927 10.8984 310.537 13.8438 310.537 17.1875V18.7109ZM303.412 17.1641C303.412 13.5859 302.771 10.8672 301.49 9.00781C300.209 7.14844 298.381 6.21875 296.006 6.21875C293.646 6.21875 291.826 7.14062 290.545 8.98438C289.263 10.8125 288.615 13.5 288.599 17.0469V18.7109C288.599 22.1953 289.24 24.8984 290.521 26.8203C291.802 28.7422 293.646 29.7031 296.052 29.7031C298.412 29.7031 300.224 28.7812 301.49 26.9375C302.756 25.0781 303.396 22.375 303.412 18.8281V17.1641ZM352.304 25.1562L356.898 0.875H363.906L356.336 35H349.258L343.703 12.1719L338.148 35H331.07L323.5 0.875H330.508L335.125 25.1094L340.75 0.875H346.703L352.304 25.1562Z" fill="black"/>
</svg>
